<svg width="364" height="63" viewBox="0 0 364 63" fill="none" xmlns="http://www.w3.org/2000/svg"><g clip-path="url(#a)"><path d="M32.093.93c-.13.01-.562.038-.96.067-4.54.337-9.088 1.856-13.038 4.36-2.61 1.655-5.067 3.871-7.053 6.352-3.196 4-5.288 8.9-5.96 13.954-.197 1.505-.245 2.202-.245 3.894 0 1.693.048 2.39.245 3.895a28.573 28.573 0 0 0 5.96 13.953c1.986 2.48 4.443 4.697 7.053 6.351a28.466 28.466 0 0 0 11.43 4.188c1.502.197 2.198.245 3.887.245 1.69 0 2.385-.048 3.887-.245a28.466 28.466 0 0 0 11.43-4.188c2.61-1.654 5.067-3.87 7.054-6.351 3.195-4 5.288-8.9 5.96-13.953.196-1.505.244-2.202.244-3.895 0-1.692-.048-2.39-.245-3.894a28.574 28.574 0 0 0-5.96-13.954 30.036 30.036 0 0 0-4.659-4.649c-3.479-2.77-7.706-4.726-12.097-5.601-1.8-.361-3.277-.51-5.254-.53a44.68 44.68 0 0 0-1.68 0Zm3.358 9.419c2.126.226 4.084.76 6.013 1.644l.585.27v17.342h-3.646V14.522l-.586-.173c-2.413-.721-5.273-.808-7.812-.24-1.238.274-2.922.913-4.054 1.538a15.683 15.683 0 0 0-8.086 12.323c-.072.717-.067 2.284 0 2.957a15.957 15.957 0 0 0 3.354 8.29l.389.485-.01 2.39-.014 2.385-.336-.28c-4.084-3.437-6.507-8.173-6.89-13.486-.063-.856-.034-2.567.052-3.293.38-3.207 1.396-6.035 3.105-8.612 2.202-3.332 5.49-5.952 9.208-7.347a19.234 19.234 0 0 1 5.394-1.182c.724-.053 2.49-.02 3.334.072Zm10.245 4.49c1.248 1.03 2.64 2.578 3.537 3.924 2.265 3.409 3.373 7.231 3.263 11.275-.03 1.091-.068 1.524-.23 2.5-.457 2.774-1.43 5.27-2.952 7.573a19.416 19.416 0 0 1-7.433 6.577c-2.883 1.447-6.209 2.145-9.395 1.967-2.687-.154-4.866-.683-7.12-1.731l-.591-.274V29.317h3.647v15.087l.326.097c1.54.466 2.99.678 4.568.682 1.77 0 3.23-.226 4.847-.75a15.68 15.68 0 0 0 10.72-12.808c.369-2.703 0-5.592-1.037-8.102-.533-1.284-1.401-2.765-2.246-3.818l-.384-.476v-2.39c0-2.269.005-2.389.087-2.326.043.038.22.182.393.326Zm-10.46 14.622v7.453h-3.647V22.008h3.647v7.453Z" fill="red"/></g><path d="M89.425 36.12c0 1.704.511 3.334 1.533 4.891 1.022 1.558 2.36 2.823 4.015 3.796 1.703.974 3.553 1.46 5.548 1.46 2.19 0 4.137-.486 5.84-1.46 1.703-.973 3.042-2.238 4.015-3.796 1.022-1.557 1.533-3.187 1.533-4.89V2.247h10.439V36.34c0 3.942-.973 7.446-2.92 10.512-1.947 3.018-4.575 5.402-7.884 7.154-3.309 1.704-6.984 2.555-11.023 2.555-3.99 0-7.64-.851-10.95-2.555-3.26-1.752-5.864-4.136-7.811-7.154-1.947-3.066-2.92-6.57-2.92-10.512V2.25h10.585V36.12ZM143.8 56.633c-2.628 0-5.086-.462-7.373-1.387-2.239-.924-4.137-2.214-5.694-3.869l4.234-5.62c1.557 1.41 2.993 2.433 4.307 3.065 1.362.584 2.579.876 3.65.876.827 0 1.557-.073 2.19-.219.681-.194 1.216-.462 1.606-.803.389-.389.584-.876.584-1.46 0-.827-.341-1.484-1.022-1.97-.633-.487-1.46-.877-2.482-1.169a91.088 91.088 0 0 0-3.285-1.022c-2.92-.924-5.037-2.263-6.351-4.015-1.266-1.8-1.898-3.747-1.898-5.84 0-1.606.413-3.212 1.241-4.818.876-1.654 2.238-3.017 4.088-4.088 1.898-1.119 4.331-1.679 7.3-1.679 2.676 0 4.939.268 6.789.803 1.849.536 3.601 1.412 5.256 2.628l-3.869 5.986a13.276 13.276 0 0 0-3.139-1.825c-1.12-.535-2.166-.827-3.139-.876-.876-.048-1.631.049-2.263.292-.584.244-1.047.56-1.387.95-.341.389-.511.802-.511 1.24-.049.925.292 1.655 1.022 2.19.778.536 1.752.95 2.92 1.241 1.168.292 2.311.633 3.431 1.022 1.557.487 2.895 1.144 4.015 1.971 1.119.828 1.971 1.825 2.555 2.993.632 1.12.949 2.482.949 4.088 0 1.947-.511 3.796-1.533 5.548-.974 1.704-2.482 3.09-4.526 4.161-1.996 1.071-4.551 1.606-7.665 1.606Zm37.979.22c-3.893 0-7.203-.73-9.928-2.19-2.677-1.46-4.721-3.48-6.132-6.06-1.411-2.579-2.117-5.548-2.117-8.906 0-3.212.827-6.107 2.482-8.687 1.655-2.579 3.869-4.623 6.643-6.132 2.774-1.557 5.864-2.336 9.271-2.336 4.575 0 8.322 1.339 11.242 4.015 2.969 2.628 4.891 6.449 5.767 11.461l-24.82 7.884-2.263-5.548 17.958-6.059-2.117.95c-.389-1.266-1.095-2.361-2.117-3.286-.973-.973-2.458-1.46-4.453-1.46-1.509 0-2.847.365-4.015 1.095-1.119.682-1.995 1.68-2.628 2.993-.584 1.266-.876 2.774-.876 4.526 0 1.996.365 3.675 1.095 5.037.73 1.314 1.728 2.312 2.993 2.993 1.265.682 2.677 1.022 4.234 1.022 1.119 0 2.19-.194 3.212-.584 1.071-.389 2.117-.9 3.139-1.533l4.526 7.592a25.664 25.664 0 0 1-5.548 2.336c-1.947.584-3.796.876-5.548.876Zm33.853-32.778.949 8.76-.219-1.314a14.147 14.147 0 0 1 3.796-4.818c1.606-1.362 3.187-2.409 4.745-3.139 1.606-.73 2.822-1.095 3.65-1.095l-.511 10.22c-2.385-.292-4.429.098-6.132 1.168-1.704 1.071-3.018 2.482-3.942 4.234-.925 1.752-1.387 3.553-1.387 5.402v12.483h-10.147v-31.9h9.198Zm13.659 26.645c0-1.508.536-2.774 1.606-3.796 1.12-1.022 2.336-1.533 3.65-1.533 1.217 0 2.361.511 3.431 1.533 1.12 1.022 1.679 2.288 1.679 3.796 0 1.606-.559 2.896-1.679 3.87-1.07.924-2.214 1.386-3.431 1.386-1.314 0-2.53-.462-3.65-1.387-1.07-.973-1.606-2.263-1.606-3.869Zm11.101-48.472H276.6v10.22h-13.067v43.508h-10.585V12.468h-12.556V2.248Zm50.834 54.604c-2.969 0-5.67-.584-8.103-1.752-2.385-1.216-4.283-3.066-5.694-5.548-1.411-2.482-2.117-5.645-2.117-9.49 0-3.601.73-6.716 2.19-9.344 1.46-2.628 3.382-4.647 5.767-6.059 2.385-1.46 4.915-2.19 7.592-2.19 3.163 0 5.548.536 7.154 1.606 1.655 1.022 3.017 2.166 4.088 3.431l-.438 1.241.949-4.672h9.49v31.901h-10.22v-6.935l.803 2.19c-.097 0-.389.292-.876.876-.487.536-1.217 1.193-2.19 1.971-.925.73-2.093 1.363-3.504 1.898-1.363.584-2.993.876-4.891.876Zm2.92-8.322c1.217 0 2.312-.17 3.285-.51a8.13 8.13 0 0 0 2.555-1.607c.73-.73 1.363-1.63 1.898-2.7V35.9c-.389-1.07-.973-1.97-1.752-2.7a7.489 7.489 0 0 0-2.774-1.753c-1.071-.438-2.263-.657-3.577-.657a7.66 7.66 0 0 0-4.088 1.168c-1.217.73-2.19 1.752-2.92 3.066-.73 1.314-1.095 2.823-1.095 4.526 0 1.704.389 3.237 1.168 4.6.779 1.362 1.801 2.433 3.066 3.211a8.163 8.163 0 0 0 4.234 1.168Zm42.943-14.308 6.059-10.147h10.147l-12.629 17.52-3.577-7.373Zm17.958 21.754H342.71l-24.601-31.9h12.556l24.382 31.9Zm-19.272-10.22-7.154 10.22h-10.147l12.629-17.082 4.672 6.862Z" fill="red"/><defs><clipPath id="a"><path fill="#fff" transform="translate(0 .922)" d="M0 0h62v62H0z"/></clipPath></defs></svg>